HIERARCHY
ROOT Bip001_Pelvis
{
  OFFSET 34.4345 95.6767 -26.8758
  CHANNELS 6 Xposition Yposition Zposition Zrotation Xrotation Yrotation
  JOINT Bip001_Spine
  {
    OFFSET 1.4188e-005 10.2191 -0.0116013
    CHANNELS 3 Zrotation Xrotation Yrotation
    JOINT Bip001_L_Thigh
    {
      OFFSET 11.0458 -10.2192 0.0116197
      CHANNELS 3 Zrotation Xrotation Yrotation
      JOINT Bip001_L_Calf
      {
        OFFSET -0.707118 -44.0221 0.360014
        CHANNELS 3 Zrotation Xrotation Yrotation
        JOINT Bip001_L_Foot
        {
          OFFSET -0.651902 -40.5938 -3.56146
          CHANNELS 3 Zrotation Xrotation Yrotation
          JOINT Bip001_L_Toe0
          {
            OFFSET 0.0530839 -10.2181 13.1504
            CHANNELS 3 Zrotation Xrotation Yrotation
            End Site
            {
              OFFSET -1.02532e-005 0 7.55606
            }
          }
        }
      }
    }
    JOINT Bip001_R_Thigh
    {
      OFFSET -11.0458 -10.2191 0.0115893
      CHANNELS 3 Zrotation Xrotation Yrotation
      JOINT Bip001_R_Calf
      {
        OFFSET 0.706994 -44.0221 0.35984
        CHANNELS 3 Zrotation Xrotation Yrotation
        JOINT Bip001_R_Foot
        {
          OFFSET 0.651786 -40.5938 -3.5613
          CHANNELS 3 Zrotation Xrotation Yrotation
          JOINT Bip001_R_Toe0
          {
            OFFSET -0.0531479 -10.2181 13.1504
            CHANNELS 3 Zrotation Xrotation Yrotation
            End Site
            {
              OFFSET -1.02894e-005 0 7.55606
            }
          }
        }
      }
    }
    JOINT Bip001_Spine1
    {
      OFFSET 1.87041e-005 14.5736 1.08638
      CHANNELS 3 Zrotation Xrotation Yrotation
      JOINT Bip001_Spine2
      {
        OFFSET 2.24614e-005 14.5058 -1.69078
        CHANNELS 3 Zrotation Xrotation Yrotation
        JOINT Bip001_Neck
        {
          OFFSET 2.20278e-005 15.3945 -0.489414
          CHANNELS 3 Zrotation Xrotation Yrotation
          JOINT Bip001_L_Clavicle
          {
            OFFSET 6.06036 -0.000579998 0.00836775
            CHANNELS 3 Zrotation Xrotation Yrotation
            JOINT Bip001_L_UpperArm
            {
              OFFSET 11.5509 -0.0600302 0.00193952
              CHANNELS 3 Zrotation Xrotation Yrotation
              JOINT Bip001_L_Forearm
              {
                OFFSET 25.9523 0.0806089 -2.15551
                CHANNELS 3 Zrotation Xrotation Yrotation
                JOINT Bip001_L_Hand
                {
                  OFFSET 32.2475 0.153767 1.63968
                  CHANNELS 3 Zrotation Xrotation Yrotation
                  JOINT Bip001_L_Finger0
                  {
                    OFFSET 6.04639 -2.20976 5.90322
                    CHANNELS 3 Zrotation Xrotation Yrotation
                    End Site
                    {
                      OFFSET 4.22375 -1.43895 0.606485
                    }
                  }
                  JOINT Bip001_L_Finger1
                  {
                    OFFSET 11.0826 -0.704819 -0.198153
                    CHANNELS 3 Zrotation Xrotation Yrotation
                    End Site
                    {
                      OFFSET 6.20027 -0.397518 -0.0787166
                    }
                  }
                }
              }
            }
          }
          JOINT Bip001_R_Clavicle
          {
            OFFSET -6.06037 -0.000563197 0.00835105
            CHANNELS 3 Zrotation Xrotation Yrotation
            JOINT Bip001_R_UpperArm
            {
              OFFSET -11.5509 -0.0599978 0.00190698
              CHANNELS 3 Zrotation Xrotation Yrotation
              JOINT Bip001_R_Forearm
              {
                OFFSET -25.9523 0.0806822 -2.15589
                CHANNELS 3 Zrotation Xrotation Yrotation
                JOINT Bip001_R_Hand
                {
                  OFFSET -32.2475 0.153859 1.63989
                  CHANNELS 3 Zrotation Xrotation Yrotation
                  JOINT Bip001_R_Finger0
                  {
                    OFFSET -6.04641 -2.20976 5.90317
                    CHANNELS 3 Zrotation Xrotation Yrotation
                    End Site
                    {
                      OFFSET -4.22376 -1.43895 0.60647
                    }
                  }
                  JOINT Bip001_R_Finger1
                  {
                    OFFSET -11.0826 -0.704794 -0.198182
                    CHANNELS 3 Zrotation Xrotation Yrotation
                    End Site
                    {
                      OFFSET -6.20028 -0.397504 -0.0787333
                    }
                  }
                }
              }
            }
          }
          JOINT Bip001_Head
          {
            OFFSET 1.09673e-005 11.2744 2.05948
            CHANNELS 3 Zrotation Xrotation Yrotation
            End Site
            {
              OFFSET 2.89576e-005 20.8808 -2.77728e-005
            }
          }
        }
      }
    }
  }
}
MOTION
Frames:	16
Frame Time:	0.04
32.3514 95.7534 -31.7902 0.383379 -4.18467 -4.03897 0.0545001 2.68421 -0.691548 5.27057 1.12677 12.5301 0.363518 7.26607 1.45404 -0.0286398 -4.10665 0.0193856 1.23934 -4.17042 -0.594089 -4.98459 -3.30547 0.69314 0.279859 12.8458 0.694197 -5.01794 -9.0681 3.31012 2.43937 -8.23377 2.56656 0.142689 5.3729 -1.38614 0.142515 5.37289 -1.38954 3.38012 -2.37764 0.369163 -26.246 4.58342 -3.61875 -49.7978 40.1323 -0.983974 16.4365 -4.06754 -32.9959 11.9286 0.793871 -6.38636 -3.18055e-015 -6.36111e-015 1.59028e-015 -3.18055e-015 -9.54167e-015 3.18055e-015 23.2114 8.90183 16.0763 67.3031 31.7418 -14.1495 -24.1452 22.0212 11.7537 16.0146 -6.91374 11.795 2.20695e-032 3.18055e-015 -3.97569e-016 -7.95139e-016 6.36111e-015 -0 -1.89856 -2.64411 1.67942 
32.3017 95.7402 -31.7836 0.17341 -4.21184 -4.14189 0.0978082 2.67622 -0.693695 5.52387 1.12886 12.3543 0.239346 7.47213 1.70595 0.0536896 -4.24303 0.0193889 1.19459 -4.13229 -0.542078 -4.69339 -3.221 1.23977 0.227929 12.7539 0.773063 -5.21078 -8.94927 2.83463 2.46914 -8.31979 2.59026 0.224254 5.35071 -1.39633 0.226213 5.35071 -1.39358 4.15413 -1.95853 0.395197 -26.6984 4.25239 -4.00978 -50.7758 42.7021 -0.435347 17.1967 -2.3846 -30.9937 10.9296 0.775397 -5.6729 6.36111e-015 1.59028e-015 -1.59028e-015 3.18055e-015 0 -0 22.7352 8.3419 15.5203 66.933 30.8085 -13.796 -24.9942 22.4195 12.1481 14.734 -8.71052 12.666 -2.38542e-015 -9.54166e-015 -3.97569e-016 -7.95139e-016 0 -3.97569e-016 -2.39139 -2.63779 2.03147 
32.2878 95.7304 -31.7781 0.0120624 -4.08776 -4.24235 0.135583 2.66104 -0.823141 5.72876 0.928222 12.6548 0.179045 7.80541 1.57367 0.199968 -4.34078 0.0193914 1.24497 -4.3755 -0.567972 -4.5355 -3.26908 1.57071 0.245619 12.5999 0.777354 -5.26534 -8.85664 2.72861 2.51005 -8.43162 2.61218 0.30995 5.3198 -1.65527 0.309952 5.31969 -1.65527 4.3096 -1.91175 0.71176 -26.7092 4.31103 -4.21268 -52.056 44.2622 0.600563 17.4346 -1.6288 -29.356 9.46623 1.17194 -5.05763 3.18055e-015 -1.59028e-015 -1.59028e-015 -4.41391e-032 1.59028e-015 1.59028e-015 22.6204 8.14733 15.1409 66.263 30.6837 -12.8029 -24.3257 19.9638 11.7393 10.9555 -10.7883 11.7739 -7.95139e-016 -6.36111e-015 1.98785e-016 -5.96354e-016 -6.36111e-015 6.95746e-016 -2.4478 -2.21868 2.41046 
32.2845 95.7157 -31.8156 -0.20145 -4.02492 -4.24499 0.208143 2.66676 -1.01327 5.97187 0.658028 12.7243 0.0798533 8.28841 1.76393 0.0333042 -4.68237 0.0194005 1.23151 -4.51507 -0.459844 -4.35767 -3.26493 1.8767 0.243868 12.416 0.759964 -5.32282 -8.74866 2.6441 2.52123 -8.45345 2.61317 0.464821 5.32945 -2.03891 0.464879 5.32947 -2.03928 3.98947 -1.94692 1.09769 -26.4123 4.45422 -4.32873 -53.3918 45.3105 1.8948 16.8832 -1.4837 -27.7501 8.65576 1.04323 -5.50507 4.41391e-032 -1.59028e-015 1.59028e-015 3.18055e-015 -4.77083e-015 1.59028e-015 22.9975 8.10939 15.0358 65.1322 29.4748 -11.7284 -24.2627 18.7936 11.4124 6.94193 -12.2817 11.5797 -7.95139e-016 -6.36111e-015 -0 -0 -3.18056e-015 -0 -2.23133 -1.54041 2.66355 
32.3628 95.687 -31.8174 -0.246632 -4.00949 -4.68674 0.21401 2.68237 -1.07215 5.86182 0.617902 12.7317 0.0942253 8.41012 2.12002 0.983489 -4.1683 0.0190583 1.59956 -5.09972 -0.810424 -4.35234 -3.50185 2.35067 0.23036 12.6422 0.773134 -5.35286 -8.78891 2.68086 2.53878 -8.51452 2.63556 0.480676 5.3602 -2.15794 0.480995 5.36021 -2.15795 3.77876 -1.94556 1.32746 -26.1819 4.52394 -4.43971 -54.5567 46.2397 3.09861 16.3353 -1.17291 -26.181 7.70903 1.01651 -5.00951 -3.18055e-015 0 1.59028e-015 -3.18055e-015 3.18056e-015 1.59028e-015 23.2318 7.99063 14.7565 63.1972 26.0066 -9.74351 -24.1025 19.018 11.446 3.35506 -12.7272 11.0017 3.18055e-015 -3.18055e-015 -7.95139e-016 2.38542e-015 0 -0 -2.23423 -0.953024 2.83621 
32.4374 95.6671 -31.7731 -0.361219 -4.01167 -5.3211 0.206669 2.70541 -1.04642 6.01045 0.577368 13.3484 0.0702638 8.94768 2.31113 0.10387 -5.11181 0.0344286 1.29031 -4.44648 -0.575021 -4.30428 -3.66006 2.57563 0.195068 12.7367 0.81795 -5.26572 -8.77474 2.99779 2.56309 -8.59311 2.66916 0.463758 5.40656 -2.10586 0.463632 5.40658 -2.10601 3.60765 -1.69312 1.47195 -25.6934 4.32412 -4.66517 -55.9507 46.6339 4.43173 15.9148 -1.01093 -24.8174 6.80371 1.00022 -4.53285 -0 0 3.18055e-015 3.18055e-015 0 4.77083e-015 23.3552 7.56076 14.3407 61.8278 22.9488 -8.86708 -24.9919 18.7282 12.4234 0.712722 -13.1121 10.0174 1.59028e-015 3.18055e-015 -1.59028e-015 3.18055e-015 6.36111e-015 -1.59028e-015 -2.27531 -0.775253 2.95192 
32.5378 95.6457 -31.6845 -0.434309 -4.11264 -5.79819 0.175628 2.73403 -1.03887 6.05036 0.660503 13.5635 0.075999 9.33541 2.70254 -0.445415 -5.77112 0.0386716 1.15 -4.11687 -0.473429 -4.30781 -3.63095 2.59008 0.136966 12.7741 0.870654 -5.1666 -8.87026 3.38484 2.55787 -8.58824 2.68048 0.400333 5.46443 -2.09104 0.400931 5.46452 -2.09033 3.68393 -1.53952 1.6601 -25.3 4.17992 -4.73866 -57.896 46.2132 6.17759 15.9181 -0.986233 -23.7705 6.13326 1.01959 -4.03879 -0 0 1.59028e-015 3.18055e-015 0 1.59028e-015 23.3533 7.16762 13.6617 60.2354 17.3304 -8.61391 -27.9414 19.4005 15.2307 -0.287654 -13.3086 11.4298 -3.18055e-015 3.18055e-015 -3.18055e-015 3.53113e-031 6.36111e-015 -3.18055e-015 -2.6809 -0.425182 3.25619 
32.648 95.6327 -31.5764 -0.489721 -4.16659 -6.05707 0.167309 2.74624 -1.08421 6.022 0.776217 13.1534 -0.084887 9.40715 3.57405 0.0563762 -5.66173 0.0399349 1.52785 -4.46218 -0.823569 -4.32772 -3.53718 2.66334 0.0766911 12.6888 0.979852 -5.12893 -8.87164 3.53046 2.59769 -8.70339 2.71108 0.388884 5.50177 -2.18017 0.388305 5.50169 -2.18027 3.62201 -1.34074 1.86362 -24.9499 3.96321 -4.66854 -59.7152 44.6096 8.03244 16.0748 -1.17154 -23.5408 6.02668 1.12076 -3.55837 3.18055e-015 0 -0 0 3.18056e-015 -0 23.4886 6.64376 12.7537 59.1085 10.142 -9.86759 -33.281 19.5899 20.872 -4.43414 -13.3799 11.0193 3.18055e-015 -3.18055e-015 -9.54166e-015 3.18055e-015 -6.36111e-015 -6.36111e-015 -2.85962 -0.147747 3.4864 
32.7534 95.612 -31.4813 -0.585186 -4.04126 -6.24819 0.208088 2.73821 -1.16905 6.10038 0.602645 13.8838 -0.075072 9.8916 3.10418 -0.354204 -6.34295 0.041074 1.25244 -4.08639 -0.54629 -4.30378 -3.55319 3.12801 0.0755656 12.5465 0.994534 -5.21005 -8.81874 3.35609 2.65334 -8.86437 2.75759 0.472957 5.47155 -2.35209 0.472958 5.47149 -2.3521 3.28182 -0.986094 2.31737 -24.4434 3.66163 -4.71372 -61.2626 42.5522 9.81027 15.8639 -1.59103 -23.837 6.76087 1.05421 -3.25588 -8.82781e-032 3.18055e-015 1.59028e-015 -3.18055e-015 0 1.59028e-015 23.9138 5.90057 11.7878 57.775 2.32139 -12.3375 -40.2132 18.4061 29.0284 -13.3497 -14.652 9.12929 -3.18055e-015 -4.77083e-015 -3.18055e-015 3.18055e-015 -4.77083e-015 -3.18055e-015 -2.93204 -0.0962521 3.86287 
32.8902 95.5539 -31.4049 -0.647894 -3.95948 -6.23974 0.263587 2.74117 -1.29307 6.14336 0.314371 14.4047 -0.23316 10.4329 2.55473 0.711949 -6.18283 0.0422128 1.52875 -4.66491 -0.733702 -4.35149 -3.6473 3.26318 0.0286131 12.6686 0.933269 -5.24977 -8.92613 3.3896 2.74482 -9.15986 2.88224 0.590133 5.47565 -2.60324 0.590132 5.47565 -2.60324 2.99719 -0.390512 2.87077 -23.8326 3.18544 -5.0483 -62.9099 41.0944 11.5667 15.4338 -2.60648 -24.3926 7.79507 0.729819 -3.32292 8.82781e-032 -3.18055e-015 1.59028e-015 8.82782e-032 -3.18056e-015 1.59028e-015 24.1022 4.7953 10.5948 54.0677 -8.39315 -13.7255 -44.5121 16.5799 38.988 -22.1121 -14.1361 8.57902 -7.55382e-015 7.95139e-016 3.18055e-015 -1.19271e-015 -7.95139e-016 6.36111e-015 -3.19518 -0.385231 4.39483 
33.0785 95.4988 -31.3785 -0.669134 -3.84225 -6.09995 0.338807 2.7727 -1.42831 6.20737 -0.281959 14.5642 -0.408733 11.442 2.46304 0.615495 -6.90234 0.0437352 1.32438 -4.30919 -0.564164 -4.49564 -3.83289 3.22589 -0.000309099 12.803 1.12208 -5.35157 -8.99436 3.22916 2.85156 -9.4856 3.00288 0.748482 5.53599 -2.87854 0.748289 5.53603 -2.87862 2.60175 -0.172384 3.65375 -23.2316 3.17338 -5.55597 -64.1714 40.1276 13.0245 15.1936 -3.31437 -25.1004 8.18875 0.408202 -3.58588 0 3.18055e-015 -0 0 6.36111e-015 -0 23.7536 3.87483 9.04233 49.9579 -21.1561 -16.0146 -49.8719 15.0837 52.7143 -27.7323 -13.5391 8.85897 -0 0 6.36111e-015 1.59028e-015 0 9.54166e-015 -3.25415 -0.326661 5.07078 
33.3333 95.4431 -31.3693 -0.88523 -3.6441 -5.91588 0.470064 2.83625 -1.49671 6.36845 -1.10373 13.8898 -0.712066 12.577 3.07954 1.08473 -7.28066 0.055902 1.37169 -4.32847 -0.596004 -4.53859 -4.02296 2.84049 -0.0904936 12.7414 1.11976 -5.30953 -8.93193 3.46717 2.89567 -9.66441 3.12022 1.01345 5.65921 -3.01548 1.01501 5.65915 -3.01668 1.96885 -0.15675 4.30188 -22.6418 3.31864 -5.94968 -64.7317 40.101 13.8308 15.2098 -3.58935 -25.7483 7.81301 0.394946 -3.5684 3.18055e-015 0 -1.59028e-015 6.36111e-015 -3.18056e-015 -3.18055e-015 23.2554 3.34994 8.12766 43.59 -35.9519 -19.7723 -55.6319 14.6366 68.8048 -31.0643 -15.695 9.88393 -3.18055e-015 6.36111e-015 -6.36111e-015 -1.59028e-015 3.18056e-015 -3.18055e-015 -2.96764 -0.515365 5.42702 
33.6382 95.3853 -31.3987 -0.966116 -3.39926 -5.52142 0.543183 2.91949 -1.45985 6.48536 -1.99728 13.5204 -1.03482 13.5607 3.31258 1.46627 -7.63292 0.0656014 1.50099 -4.26242 -0.839143 -4.62645 -4.38664 2.84186 -0.0989815 12.8785 1.13568 -5.49091 -8.78108 3.06402 2.92701 -9.77438 3.18356 1.17174 5.82384 -2.96068 1.16704 5.82408 -2.95802 1.68601 -0.466066 4.29458 -22.3852 3.66872 -6.126 -64.6492 40.4407 13.8684 15.6144 -3.19958 -26.0816 7.1349 0.649966 -3.61944 3.18055e-015 3.18055e-015 -1.59028e-015 3.18055e-015 0 1.59028e-015 22.5627 3.53034 7.94511 36.036 -48.4648 -24.2821 -56.2753 12.3144 81.7342 -35.1039 -16.0208 9.46566 1.59028e-015 0 -6.36111e-015 1.59028e-015 0 -0 -2.70895 -0.93978 5.29191 
34.2984 95.3354 -31.7628 -0.379589 -2.57617 -5.70445 0.431139 2.84258 -1.18607 5.59831 -3.27585 12.53 -0.934438 13.875 4.59763 1.33306 -7.77399 0.072983 1.48691 -3.87543 -0.912314 -5.43238 -6.11971 4.56111 0.570307 14.0453 0.876296 -6.02312 -8.59709 1.53605 2.99936 -9.98461 3.24748 0.920945 5.67539 -2.3974 0.921843 5.67529 -2.39766 1.69361 -0.981069 3.77061 -22.1909 4.04341 -5.90265 -64.4844 40.6281 13.5481 16.2411 -2.46076 -26.246 6.93732 0.665735 -3.76228 -3.18055e-015 6.36111e-015 -0 0 6.36111e-015 -0 22.711 4.32111 8.5713 30.5802 -54.5304 -25.3397 -54.4871 8.05398 87.0975 -37.3722 -16.9647 9.53577 3.18055e-015 -9.54166e-015 -0 3.18055e-015 -9.54167e-015 -3.18055e-015 -2.59823 -0.88671 4.73009 
34.5945 95.2752 -31.6731 -0.332963 -1.99049 -3.95555 0.450499 2.73915 -1.25495 5.64569 -4.4465 12.0165 -1.06123 14.688 3.64277 1.79666 -7.9649 0.0794666 1.60922 -3.89344 -1.08771 -5.50307 -6.24136 2.6811 0.0819579 14.1613 1.04633 -6.10719 -8.66972 1.61526 3.112 -10.2914 3.32993 0.962678 5.46768 -2.53579 0.962681 5.46769 -2.53579 2.68524 -2.00259 2.6282 -23.3772 4.70902 -4.80911 -63.8382 40.223 13.2207 16.3302 -2.13362 -26.6761 7.46924 0.758411 -3.80514 3.18055e-015 0 -0 3.18055e-015 0 -1.59028e-015 22.4047 5.95094 9.64248 25.9847 -59.5549 -24.653 -51.5261 4.79365 90.8543 -37.5907 -17.988 9.83307 6.36111e-015 3.18055e-015 -3.18055e-015 3.18055e-015 0 -0 -3.57634 0.408534 4.12094 
34.8678 95.2655 -31.6409 -0.72653 -1.82215 -2.73109 0.535943 2.69658 -1.14414 6.08671 -5.09409 12.0899 -1.29084 15.3997 2.22224 2.36335 -8.12005 0.0927224 1.66673 -4.01843 -1.13777 -5.27655 -5.75969 1.75719 -0.128939 13.5191 1.07022 -6.19819 -8.2354 1.26362 3.2008 -10.5463 3.42682 1.12762 5.38176 -2.31737 1.12762 5.38176 -2.31737 3.19206 -2.59517 1.25184 -23.9845 4.76722 -3.50498 -63.4094 39.8756 12.4899 16.686 -1.30702 -26.9282 8.33585 0.593647 -4.30059 -3.18055e-015 6.36111e-015 -0 -3.18055e-015 3.18056e-015 1.59028e-015 21.4684 7.22807 11.4535 26.6606 -63.4311 -18.7532 -50.9075 3.31234 92.3561 -39.5826 -18.2822 9.6894 3.18055e-015 -3.18055e-015 1.59028e-015 9.54166e-015 3.18056e-015 -0 -4.34571 1.00513 3.09594 
